<?xml version="1.0" encoding="UTF-8" standalone="no"?>
<!-- Generator: Adobe Illustrator 27.9.0, SVG Export Plug-In . SVG Version: 6.00 Build 0)  -->

<svg
   version="1.1"
   id="Layer_1"
   x="0px"
   y="0px"
   viewBox="0 0 331.53999 61.950003"
   xml:space="preserve"
   sodipodi:docname="core11.svg"
   width="331.54001"
   height="61.950001"
   inkscape:version="1.2.2 (b0a8486541, 2022-12-01)"
   xmlns:inkscape="http://www.inkscape.org/namespaces/inkscape"
   xmlns:sodipodi="http://sodipodi.sourceforge.net/DTD/sodipodi-0.dtd"
   xmlns="http://www.w3.org/2000/svg"
   xmlns:svg="http://www.w3.org/2000/svg"><defs
   id="defs2784">
<style>
  :root {
    --text-color: #000000;
  }
  @media (prefers-color-scheme: dark) {
    :root {
      --text-color: #ffffff;
    }
  }
  #g2779 { fill: var(--text-color); }
</style>
</defs><sodipodi:namedview
   id="namedview2782"
   pagecolor="#000000"
   bordercolor="#ffffff"
   borderopacity="0.25"
   inkscape:showpageshadow="2"
   inkscape:pageopacity="0.0"
   inkscape:pagecheckerboard="0"
   inkscape:deskcolor="#d1d1d1"
   showgrid="false"
   inkscape:zoom="4.061954"
   inkscape:cx="165.6838"
   inkscape:cy="20.802796"
   inkscape:window-width="2560"
   inkscape:window-height="1403"
   inkscape:window-x="2560"
   inkscape:window-y="0"
   inkscape:window-maximized="1"
   inkscape:current-layer="Layer_1" />
<g
   id="g2779"
   transform="translate(-131.86,-63.92)">
	
		<path
   d="m 310.77,101.09 c 9.45,-2.67 13.12,-10.92 13.12,-18.63 0,-9.91 -5.96,-18.54 -19.91,-18.54 h -48.25 c 3.12,2.94 5.59,6.57 7.44,10.83 h 41.17 c 5.97,0 8.63,3.76 8.63,8.16 0,4.4 -2.48,8.63 -8.63,8.63 h -24.13 c -6.79,0 -9.73,2.84 -9.73,9.81 v 24.5 h 10.83 v -22.39 c 0,-1.1 0.55,-1.56 1.56,-1.56 h 16.15 l 14.13,23.95 h 12.02 z"
   id="path2767" />
		<path
   d="M 252.37,74.76 C 247.7,67.8 240.33,63.93 229.92,63.93 h -4.23 -4.23 c -17.98,0 -27.99,10.28 -27.99,31.11 0,8.65 2.11,15.02 5.43,20.01 4.64,6.96 12.02,10.82 22.55,10.82 h 4.18 4.27 c 18.07,0 27.99,-10.09 27.99,-30.83 0.01,-8.77 -2.13,-15.24 -5.52,-20.28 z m -22.45,40.28 h -4.27 -4.18 c -12.01,0 -17.15,-5.87 -17.15,-20.01 0,-14.23 5.23,-20.28 17.15,-20.28 h 4.23 4.23 c 11.92,0 17.06,6.05 17.06,20.19 -0.01,14.23 -5.15,20.1 -17.07,20.1 z"
   id="path2769" />
		<path
   d="m 183.81,115.04 v 0 l -23.96,-0.01 c -11.91,0 -17.13,-5.95 -17.15,-20.14 0.01,-14.18 5.24,-20.14 17.15,-20.14 h 23.96 v -0.01 h 4.34 c 1.83,-4.26 4.3,-7.89 7.41,-10.82 h -11.75 -23.96 c -18.07,0 -27.99,10.19 -27.99,30.92 0,0.02 0.01,0.03 0.01,0.05 0,0.02 -0.01,0.03 -0.01,0.05 0,20.73 9.91,30.92 27.99,30.92 h 23.96 11.75 c -3.12,-2.93 -5.58,-6.57 -7.41,-10.82 z"
   id="path2771" />
	<path
   d="m 385.49,63.92 v 10.83 h -31.01 c -6.52,0 -9.36,3.03 -9.36,7.8 0,5.05 3.2,7.34 9.45,7.34 h 30.46 v 9.82 h -30.74 c -6.23,0 -9.44,2.47 -9.44,7.52 0,4.87 3.03,7.81 9.35,7.81 h 31.39 v 10.82 H 354.2 c -14.67,0 -20.64,-7.25 -20.64,-16.88 0,-7.06 3.21,-11.84 8.9,-14.23 -5.78,-2.38 -8.72,-7.15 -8.72,-13.95 0,-9.91 6.15,-16.88 20.74,-16.88 z"
   id="path2773" />
	<path
   d="m 418.11,63.92 c 11.28,0 14.4,4.04 14.4,14.77 v 47.17 H 421.7 V 79.43 c 0,-3.29 -1.2,-4.67 -4.49,-4.67 h -5.6 V 63.92 Z"
   id="path2775" />
	<path
   d="m 448.99,63.92 c 11.3,0 14.41,4.04 14.41,14.77 v 47.17 H 452.57 V 79.43 c 0,-3.29 -1.18,-4.67 -4.49,-4.67 h -5.6 V 63.92 Z"
   id="path2777" />
</g>
</svg>
